<?xml version="1.0" encoding="UTF-8"?>
<svg id="Layer_1" xmlns="http://www.w3.org/2000/svg" version="1.1" viewBox="0 0 600 570">
  <!-- Generator: Adobe Illustrator 30.3.0, SVG Export Plug-In . SVG Version: 2.1.3 Build 182)  -->
  <defs>
    <style>
      .st0 {
        fill: #fff;
      }
    </style>
  </defs>
  <path class="st0" d="M510.9,370.4c41.3-70,46.2-154.5,17.1-230.1,51.7,83.4,49.2,188.7-4.1,270.3-17.1,26.3-38.9,49.2-64.1,68.1-72.8,54.5-167.8,67.8-252.6,35.6C57,457.4-13,276.8,70.1,137c-11.4,31.9-18.2,63.9-16.9,97.7,3.2,83.6,46.6,161.3,116.6,206.9,54.9,35.4,121.7,47.1,184.8,28.6,59.3-17.5,108.2-59.8,136.3-114.5,11.7-23.3,19.8-46.5,24.4-72.3,6.9,28.9,2.1,56.2-4.2,87.1Z"/>
  <path class="st0" d="M371,114.5l-135.5-.5c-25.7,3.5-47.6,21.9-50.6,48.3-1.9,17.2-2.1,34.1.2,51.8,3.3,24.7,26.4,46.1,52,46.1h133.6c28.5,0,50.9-25.2,52.5-52v-41.3c-1.5-27-24.1-52.3-52.1-52.4ZM261.9,195.2c0,9.6-7.7,17.3-17.3,17.3s-17.3-7.8-17.3-17.3v-16.8c0-9.6,7.7-17.3,17.3-17.3s9.1,1.9,12.2,5.1c3.1,3.1,5.1,7.5,5.1,12.2v16.8ZM379.5,195.2c0,9.6-7.8,17.3-17.3,17.3s-17.3-7.8-17.3-17.3v-16.8c0-9.6,7.7-17.3,17.3-17.3s9.1,1.9,12.2,5.1c3.1,3.1,5.1,7.5,5.1,12.2v16.8Z"/>
  <path class="st0" d="M370.3,61l-121.8-.6c-42-.2-79.2,23-94.1,62.5-3.3,8.8-6.5,17.9-6.5,28l-.5,184.3c-13.1-23.1-22-46.7-22.1-72.1l-.3-104.4c-.1-42,20.8-81.1,56.5-103.1,16.7-10.2,35.3-17.1,55.2-17.1h135.8c17.8,0,34.6,6.1,49.7,14.7,38,21.5,60.8,61.7,60.6,105.5l-.3,104.4c0,25.7-9.5,49.3-21.9,71.9l-1-182.9c-.3-45.4-43.4-90.8-89.1-91Z"/>
  <path class="st0" d="M389.6,430.1c-15.5,8.7-31.3,15.4-48.6,19.9v-139.1c-.6-3,1.1-7.4,4.2-7.5l39.3-.2c3,.9,4.6,3.2,5,6.5v120.5Z"/>
  <path class="st0" d="M325.3,453.1c-16.7,2.6-32.8,2.9-49.2,1.4v-100.4c.2-3.8,2.7-5.9,6.3-5.9h36.4c3.5,0,6.2,2.1,6.4,5.8v99.1Z"/>
  <path class="st0" d="M212.3,437.3l-.2-42.6c.3-3.7,3.1-5.9,6.7-5.7l34.3-.3c3,0,7.1,1.7,7.1,5.1l.2,58.2c-16.8-2.7-32.3-7.9-48.1-14.8Z"/>
</svg>