<?xml version="1.0" encoding="UTF-8"?>
<svg id="Layer_1" xmlns="http://www.w3.org/2000/svg" version="1.1" viewBox="0 0 860 860">
  <!-- Generator: Adobe Illustrator 30.3.0, SVG Export Plug-In . SVG Version: 2.1.3 Build 182)  -->
  <defs>
    <style>
      .st0 {
        fill: #fff;
      }
    </style>
  </defs>
  <g>
    <path class="st0" d="M642,372.2c41.3-70,46.2-154.5,17.1-230.1,51.7,83.4,49.2,188.7-4.1,270.3-17.1,26.3-38.9,49.2-64.1,68.1-72.8,54.5-167.8,67.8-252.6,35.6-150-56.9-220-237.4-136.9-377.3-11.4,31.9-18.2,63.9-16.9,97.7,3.2,83.6,46.6,161.3,116.6,206.9,54.9,35.4,121.7,47.1,184.8,28.6,59.3-17.5,108.2-59.8,136.3-114.5,11.7-23.3,19.8-46.5,24.4-72.3,6.9,28.9,2.1,56.2-4.2,87.1Z"/>
    <path class="st0" d="M502.1,116.3l-135.5-.5c-25.7,3.5-47.6,21.9-50.6,48.3-1.9,17.2-2.1,34.1.2,51.8,3.3,24.7,26.4,46.1,52,46.1h133.6c28.5,0,50.9-25.2,52.5-52v-41.3c-1.5-27-24.1-52.3-52.1-52.4ZM393,197c0,9.6-7.7,17.3-17.3,17.3s-17.3-7.8-17.3-17.3v-16.8c0-9.6,7.7-17.3,17.3-17.3s9.1,1.9,12.2,5.1c3.1,3.1,5.1,7.5,5.1,12.2v16.8ZM510.7,197c0,9.6-7.8,17.3-17.3,17.3s-17.3-7.8-17.3-17.3v-16.8c0-9.6,7.7-17.3,17.3-17.3s9.1,1.9,12.2,5.1c3.1,3.1,5.1,7.5,5.1,12.2v16.8Z"/>
    <path class="st0" d="M501.5,62.8l-121.8-.6c-42-.2-79.2,23-94.1,62.5-3.3,8.8-6.5,17.9-6.5,28l-.5,184.3c-13.1-23.1-22-46.7-22.1-72.1l-.3-104.4c-.1-42,20.8-81.1,56.5-103.1,16.7-10.2,35.3-17.1,55.2-17.1h135.8c17.8,0,34.6,6.1,49.7,14.7,38,21.5,60.8,61.7,60.6,105.5l-.3,104.4c0,25.7-9.5,49.3-21.9,71.9l-1-182.9c-.3-45.4-43.4-90.8-89.1-91Z"/>
    <path class="st0" d="M520.7,431.9c-15.5,8.7-31.3,15.4-48.6,19.9v-139.1c-.6-3,1.1-7.4,4.2-7.5l39.3-.2c3,.9,4.6,3.2,5,6.5v120.5Z"/>
    <path class="st0" d="M456.5,454.9c-16.7,2.6-32.8,2.9-49.2,1.4v-100.4c.2-3.8,2.7-5.9,6.3-5.9h36.4c3.5,0,6.2,2.1,6.4,5.8v99.1Z"/>
    <path class="st0" d="M343.5,439.1l-.2-42.6c.3-3.7,3.1-5.9,6.7-5.7l34.3-.3c3,0,7.1,1.7,7.1,5.1l.2,58.2c-16.8-2.7-32.3-7.9-48.1-14.8Z"/>
  </g>
  <g>
    <path class="st0" d="M751.1,740.9l-29.7.2-.6-19.8c-9.7,13.5-24.2,20.6-40.2,22.1-43,3.9-76.7-28.7-77.1-71.2-.4-41.4,31.6-76.1,73.9-73.8,17.5.9,33.1,9.1,43.4,23.3l.3-20.3h30s0,139.5,0,139.5ZM720.1,681.8c1.3-6.5,1.4-11.8.6-17.8-2.9-23.6-23.3-39.8-46.3-38.1-23.2,1.7-39.4,20.7-40.2,44.2-.9,23.8,14.5,43.8,37.7,46.8,22.5,2.9,43.5-11.6,48.2-35Z"/>
    <path class="st0" d="M283.9,741.2l-.6-81.3c0-10.9-4.5-21.6-13.6-27.7-15.4-10.3-37.4-7.5-49.4,6.7-5.9,6.9-9,16.3-9.1,25.5l-.4,76.8-29.7-.2v-188.4s29.7,0,29.7,0l.5,66.3c21-25.2,59.5-27.3,83.6-7.1,11.6,10.5,18.6,24.8,18.7,41l.6,88.4h-30.3Z"/>
    <path class="st0" d="M553.3,700.7l18.8,17.8c-14,16.6-33.1,24.4-54.1,25.2s-55.4-12.3-68.3-38.2c-11.5-23.1-10.5-50.7,2.3-73,14.6-25.5,42.8-37.8,71.5-33.3s60.8,42.5,56.4,81.5h-107.1c3,21.5,20.2,36.4,41,36.8,15,.7,28.9-4.7,39.4-16.9ZM550.4,658.7c-2.2-18.1-14.7-31.1-31.1-33.6-22.5-4.1-43.3,10.7-45.9,33.8l77-.3Z"/>
    <path class="st0" d="M132.6,736.3c-25.7,13.4-68.4,8.2-92.1-11l10.6-25.1c14.2,11.6,30.8,18.3,49.3,18.1,13.1-.1,24.7-5.4,24.2-16.9-1-19.6-36.2-13.9-62.5-28.1-11.5-6.2-18.2-16.4-18.9-29.4-1-18.4,9.1-34,26.9-40.6,25.1-9.3,53.9-5.3,77,9l-7.9,24.9c-11-6.9-22.8-11.7-36.5-12.7-14.3-1.1-29.3,2.9-29.3,15.5,0,19.2,37.9,14.6,62.4,28.7,12,6.9,18.1,18.3,18.1,32.1s-7.4,28.5-21.2,35.6Z"/>
    <path class="st0" d="M378.9,740.9l-30.3.2v-139.8s30.3,0,30.3,0c.1,7-1.2,12.9.9,21.2,11-16.4,28.4-25.4,47.3-23.3v29.6c-12.6-.9-25.3,1.2-34.7,9.6-8.8,7.9-13.2,19.5-13.3,31.5l-.2,70.8Z"/>
    <polygon class="st0" points="816.5 741.1 786.3 741.3 786.3 601.4 816.5 601.4 816.5 741.1"/>
    <path class="st0" d="M795.1,553.1c10.3-3.5,20.7,1.8,23.6,11.5,2.7,9-1.8,19.6-11.3,22.7-9.3,3-19.7-1.3-23.2-11.1-3.1-8.5.8-19.6,11-23.1Z"/>
  </g>
  <g>
    <path class="st0" d="M57.7,814.4h-10.9l-2.1,5h-4.2l9.8-21.8h4l9.8,21.8h-4.2l-2.2-5ZM56.4,811.2l-4.1-9.5-4.1,9.5h8.2Z"/>
    <path class="st0" d="M89.4,797.6v21.8h-3.3l-12-14.8v14.8h-4v-21.8h3.3l12,14.8v-14.8h4Z"/>
    <path class="st0" d="M110,797.6h4v21.8h-4v-21.8Z"/>
    <path class="st0" d="M142.4,797.6v21.8h-3.3l-12-14.8v14.8h-4v-21.8h3.3l12,14.8v-14.8h4Z"/>
    <path class="st0" d="M155.8,801h-7.2v-3.4h18.5v3.4h-7.2v18.4h-4v-18.4Z"/>
    <path class="st0" d="M189.6,816v3.4h-16.3v-21.8h15.9v3.4h-11.9v5.7h10.5v3.3h-10.5v6h12.3Z"/>
    <path class="st0" d="M197.2,797.6h4v18.4h11.4v3.4h-15.4v-21.8Z"/>
    <path class="st0" d="M219,797.6h4v21.8h-4v-21.8Z"/>
    <path class="st0" d="M246.9,808.3h3.8v8.7c-2.3,1.8-5.4,2.8-8.5,2.8-6.8,0-11.7-4.7-11.7-11.2s5-11.2,11.8-11.2,6.7,1.2,8.7,3.5l-2.6,2.5c-1.7-1.7-3.7-2.5-6-2.5-4.6,0-7.9,3.1-7.9,7.7s3.3,7.7,7.9,7.7,3.1-.3,4.5-1.1v-6.8Z"/>
    <path class="st0" d="M275.5,816v3.4h-16.3v-21.8h15.9v3.4h-11.9v5.7h10.5v3.3h-10.5v6h12.3Z"/>
    <path class="st0" d="M302.5,797.6v21.8h-3.3l-12-14.8v14.8h-4v-21.8h3.3l12,14.8v-14.8h4Z"/>
    <path class="st0" d="M315.9,801h-7.2v-3.4h18.5v3.4h-7.2v18.4h-4v-18.4Z"/>
    <path class="st0" d="M359.1,814.4h-10.9l-2.1,5h-4.2l9.8-21.8h4l9.8,21.8h-4.2l-2.2-5ZM357.8,811.2l-4.1-9.5-4.1,9.5h8.2Z"/>
    <path class="st0" d="M386,808.3h3.8v8.7c-2.3,1.8-5.4,2.8-8.5,2.8-6.8,0-11.7-4.7-11.7-11.2s5-11.2,11.8-11.2,6.7,1.2,8.7,3.5l-2.6,2.5c-1.7-1.7-3.7-2.5-6-2.5-4.6,0-7.9,3.1-7.9,7.7s3.3,7.7,7.9,7.7,3.1-.3,4.5-1.1v-6.8Z"/>
    <path class="st0" d="M414.6,816v3.4h-16.3v-21.8h15.9v3.4h-11.9v5.7h10.5v3.3h-10.5v6h12.3Z"/>
    <path class="st0" d="M441.6,797.6v21.8h-3.3l-12-14.8v14.8h-4v-21.8h3.3l12,14.8v-14.8h4Z"/>
    <path class="st0" d="M455,801h-7.2v-3.4h18.5v3.4h-7.2v18.4h-4v-18.4Z"/>
    <path class="st0" d="M488.2,801v6.6h10.5v3.4h-10.5v8.3h-4v-21.8h15.9v3.4h-11.9Z"/>
    <path class="st0" d="M505.2,808.5c0-6.4,5-11.2,11.7-11.2s11.7,4.7,11.7,11.2-5,11.2-11.7,11.2-11.7-4.8-11.7-11.2ZM524.6,808.5c0-4.5-3.3-7.7-7.7-7.7s-7.7,3.2-7.7,7.7,3.3,7.7,7.7,7.7,7.7-3.2,7.7-7.7Z"/>
    <path class="st0" d="M550.4,819.4l-4.5-6.4c-.3,0-.6,0-.8,0h-4.9v6.4h-4v-21.8h9c5.7,0,9.3,2.9,9.3,7.8s-1.7,5.7-4.6,6.9l5,7.2h-4.4ZM544.9,801h-4.7v8.7h4.7c3.5,0,5.4-1.6,5.4-4.4s-1.8-4.3-5.4-4.3Z"/>
    <path class="st0" d="M583.1,811.7v7.7h-4v-7.6l-8.6-14.2h4.3l6.4,10.6,6.4-10.6h4l-8.5,14.1Z"/>
    <path class="st0" d="M594.9,808.5c0-6.4,5-11.2,11.7-11.2s11.7,4.7,11.7,11.2-5,11.2-11.7,11.2-11.7-4.8-11.7-11.2ZM614.3,808.5c0-4.5-3.3-7.7-7.7-7.7s-7.7,3.2-7.7,7.7,3.3,7.7,7.7,7.7,7.7-3.2,7.7-7.7Z"/>
    <path class="st0" d="M625.6,809.9v-12.3h4v12.1c0,4.5,2,6.4,5.5,6.4s5.5-1.9,5.5-6.4v-12.1h4v12.3c0,6.4-3.6,9.8-9.5,9.8s-9.6-3.5-9.6-9.8Z"/>
    <path class="st0" d="M667.7,819.4l-4.5-6.4c-.3,0-.6,0-.8,0h-4.9v6.4h-4v-21.8h9c5.7,0,9.3,2.9,9.3,7.8s-1.7,5.7-4.6,6.9l5,7.2h-4.4ZM662.2,801h-4.7v8.7h4.7c3.5,0,5.4-1.6,5.4-4.4s-1.8-4.3-5.4-4.3Z"/>
    <path class="st0" d="M705.3,819.4l-4.5-6.4c-.3,0-.6,0-.8,0h-4.9v6.4h-4v-21.8h9c5.7,0,9.3,2.9,9.3,7.8s-1.7,5.7-4.6,6.9l5,7.2h-4.4ZM699.8,801h-4.7v8.7h4.7c3.5,0,5.4-1.6,5.4-4.4s-1.8-4.3-5.4-4.3Z"/>
    <path class="st0" d="M733.2,816v3.4h-16.3v-21.8h15.9v3.4h-11.9v5.7h10.5v3.3h-10.5v6h12.3Z"/>
    <path class="st0" d="M745.3,801h-7.2v-3.4h18.5v3.4h-7.2v18.4h-4v-18.4Z"/>
    <path class="st0" d="M775.7,814.4h-10.9l-2.1,5h-4.2l9.8-21.8h4l9.8,21.8h-4.2l-2.2-5ZM774.4,811.2l-4.1-9.5-4.1,9.5h8.2Z"/>
    <path class="st0" d="M788,797.6h4v21.8h-4v-21.8Z"/>
    <path class="st0" d="M801.1,797.6h4v18.4h11.4v3.4h-15.4v-21.8Z"/>
  </g>
</svg>